<svg width="1200" height="630" viewBox="0 0 1200 630" fill="none" xmlns="http://www.w3.org/2000/svg">
  <defs>
    <linearGradient id="og-grad" x1="0" y1="0" x2="1200" y2="630" gradientUnits="userSpaceOnUse">
      <stop stop-color="#00E5FF"/><stop offset="0.55" stop-color="#2D6BFF"/><stop offset="1" stop-color="#FF7A18"/>
    </linearGradient>
    <radialGradient id="og-glow1" cx="0.15" cy="0.1" r="0.6"><stop stop-color="#2D6BFF" stop-opacity="0.35"/><stop offset="1" stop-color="#2D6BFF" stop-opacity="0"/></radialGradient>
    <radialGradient id="og-glow2" cx="0.9" cy="1" r="0.6"><stop stop-color="#FF7A18" stop-opacity="0.28"/><stop offset="1" stop-color="#FF7A18" stop-opacity="0"/></radialGradient>
    <radialGradient id="og-lens" cx="0.5" cy="0.5" r="0.5"><stop offset="0" stop-color="#00E5FF"/><stop offset="0.6" stop-color="#2D6BFF"/><stop offset="1" stop-color="#0B0F19"/></radialGradient>
    <pattern id="og-grid" width="48" height="48" patternUnits="userSpaceOnUse">
      <path d="M48 0H0V48" fill="none" stroke="#00E5FF" stroke-opacity="0.07" stroke-width="1"/>
    </pattern>
  </defs>

  <rect width="1200" height="630" fill="#0B0F19"/>
  <rect width="1200" height="630" fill="url(#og-grid)"/>
  <rect width="1200" height="630" fill="url(#og-glow1)"/>
  <rect width="1200" height="630" fill="url(#og-glow2)"/>

  <!-- Logo mark -->
  <g transform="translate(120, 235) scale(2.5)">
    <path d="M32 3.5 56.7 17.75V46.25L32 60.5 7.3 46.25V17.75Z" fill="#0E1424" stroke="url(#og-grad)" stroke-width="2.5"/>
    <path d="M19 44 V22 L32 34 L45 22 V44" fill="none" stroke="url(#og-grad)" stroke-width="3.2" stroke-linejoin="round" stroke-linecap="round"/>
    <circle cx="32" cy="33" r="6.4" fill="url(#og-lens)" stroke="#FF7A18" stroke-width="1.6"/>
    <circle cx="32" cy="33" r="2.2" fill="#0B0F19"/>
  </g>

  <!-- Text -->
  <text x="320" y="270" font-family="Orbitron, sans-serif" font-size="74" font-weight="800" fill="#E8EEF7" letter-spacing="3">MATHA</text>
  <text x="322" y="320" font-family="Arial, sans-serif" font-size="34" fill="url(#og-grad)" letter-spacing="2">COMPUTERS &amp; CCTV</text>
  <text x="322" y="392" font-family="Arial, sans-serif" font-size="30" fill="#93A2BC">CCTV  ·  Desktop  ·  Laptop  —  Sales &amp; Service</text>
  <text x="322" y="446" font-family="Arial, sans-serif" font-size="26" fill="#93A2BC">Harohalli, Bangalore — 560099  ·  📞 98867 95838</text>

  <rect x="0" y="618" width="1200" height="12" fill="url(#og-grad)"/>
</svg>
